<?xml version="1.0" encoding="UTF-8"?>
<svg version="1.1" xmlns="http://www.w3.org/2000/svg" width="128" height="128">
<path d="M0 0 C23.55361068 -0.63064041 51.57202413 -1.01442223 70 16 C76.47055993 22.19681071 82.76065103 28.57140339 89 35 C92.5683494 33.5170884 94.50827861 31.54942768 97.0078125 28.6328125 C101.93031186 23.02870528 107.07871355 17.70132995 112.34082031 12.41894531 C113.90108304 10.84875094 115.45037985 9.26819023 117 7.6875 C117.996742 6.68424582 118.99411367 5.68161674 119.9921875 4.6796875 C121.32805908 3.32979736 121.32805908 3.32979736 122.69091797 1.95263672 C125 0 125 0 128 0 C128.63064041 23.55361068 129.01442223 51.57202413 112 70 C105.80318929 76.47055993 99.42859661 82.76065103 93 89 C94.73070423 92.72322423 96.69616566 94.72241042 99.8125 97.4375 C105.64272254 102.64077653 111.2502231 108.06580406 116.79989624 113.56570435 C117.76648837 114.52175931 118.73591746 115.47495455 119.7081604 116.42526245 C121.08886254 117.77600499 122.45871862 119.13780692 123.828125 120.5 C124.6315332 121.2940625 125.43494141 122.088125 126.26269531 122.90625 C128 125 128 125 128 128 C102.80604924 128.63604614 75.97573914 128.50605871 56.32666016 110.55810547 C53.63610592 107.92935795 50.99665856 105.25989536 48.375 102.5625 C47.46621094 101.64017578 46.55742188 100.71785156 45.62109375 99.76757812 C43.40696805 97.51849254 41.20022249 95.26267422 39 93 C35.27677577 94.73070423 33.27758958 96.69616566 30.5625 99.8125 C25.35922347 105.64272254 19.93419594 111.2502231 14.43429565 116.79989624 C13.47824069 117.76648837 12.52504545 118.73591746 11.57473755 119.7081604 C10.22399501 121.08886254 8.86219308 122.45871862 7.5 123.828125 C6.7059375 124.6315332 5.911875 125.43494141 5.09375 126.26269531 C3 128 3 128 0 128 C-0.59575115 104.4021441 -1.07327965 76.49172315 16 58 C22.19681071 51.52944007 28.57140339 45.23934897 35 39 C33.5170884 35.4316506 31.54942768 33.49172139 28.6328125 30.9921875 C23.02870528 26.06968814 17.70132995 20.92128645 12.41894531 15.65917969 C10.84875094 14.09891696 9.26819023 12.54962015 7.6875 11 C6.68424582 10.003258 5.68161674 9.00588633 4.6796875 8.0078125 C3.77976074 7.11723145 2.87983398 6.22665039 1.95263672 5.30908203 C0 3 0 3 0 0 Z " fill="#00AD46" transform="translate(0,0)"/>
<path d="M0 0 C0.76236888 28.47350018 -0.70989874 53.79475417 -20.91015625 75.4140625 C-22.61970365 77.15881797 -24.33721017 78.89580974 -26.0625 80.625 C-26.92166016 81.52089844 -27.78082031 82.41679688 -28.66601562 83.33984375 C-35.72671617 90.44908999 -35.72671617 90.44908999 -39.87890625 91.22265625 C-45.02478669 90.85555339 -47.44936098 88.59632739 -51 85 C-61.63810124 72.19677239 -61.63810124 72.19677239 -62.375 65.6875 C-60.39650703 60.38154158 -56.87127415 59.20794685 -52.015625 56.61328125 C-45.74043743 53.25621847 -40.74183349 48.70899965 -38 42 C-38.07347656 41.0615625 -38.14695312 40.123125 -38.22265625 39.15625 C-37.9031323 34.62685783 -35.38519795 32.4949803 -32.3125 29.4375 C-31.70688232 28.81415771 -31.10126465 28.19081543 -30.47729492 27.54858398 C-29.11051777 26.14873012 -27.73605117 24.75635773 -26.35546875 23.37011719 C-24.19691621 21.19814082 -22.05717388 19.00898817 -19.92292786 16.81315613 C-18.03100958 14.86982802 -16.13079582 12.93477435 -14.2281189 11.00198364 C-12.82316347 9.57334323 -11.42291368 8.14008019 -10.02270508 6.70678711 C-9.15540771 5.83546143 -8.28811035 4.96413574 -7.39453125 4.06640625 C-6.61956299 3.28209229 -5.84459473 2.49777832 -5.04614258 1.68969727 C-3 0 -3 0 0 0 Z " fill="#00C6D4" transform="translate(128,0)"/>
<path d="M0 0 C28.43478862 -0.76133239 53.87761487 0.66912258 75.4140625 20.9453125 C77.1588322 22.66400194 78.89582355 24.39062302 80.625 26.125 C81.52089844 26.99253906 82.41679688 27.86007813 83.33984375 28.75390625 C84.18933594 29.60082031 85.03882812 30.44773437 85.9140625 31.3203125 C86.6767041 32.07586426 87.4393457 32.83141602 88.22509766 33.60986328 C90.34229675 36.46094706 90.75916588 38.4845452 91 42 C87.88404612 50.7952787 78.57772222 57.05698074 70.66796875 61.23046875 C68.75 62.0625 68.75 62.0625 66 63 C61.30383123 59.96130256 59.18946159 56.18089681 56.4609375 51.46484375 C52.94666519 45.53568379 48.49890681 40.65597276 42 38 C41.0615625 38.07347656 40.123125 38.14695313 39.15625 38.22265625 C34.62685783 37.9031323 32.4949803 35.38519795 29.4375 32.3125 C28.81415771 31.70688232 28.19081543 31.10126465 27.54858398 30.47729492 C26.14873012 29.11051777 24.75635773 27.73605117 23.37011719 26.35546875 C21.19814082 24.19691621 19.00898817 22.05717388 16.81315613 19.92292786 C14.86982802 18.03100958 12.93477435 16.13079582 11.00198364 14.2281189 C9.57334323 12.82316347 8.14008019 11.42291368 6.70678711 10.02270508 C5.83546143 9.15540771 4.96413574 8.28811035 4.06640625 7.39453125 C3.28209229 6.61956299 2.49777832 5.84459473 1.68969727 5.04614258 C0 3 0 3 0 0 Z " fill="#E43921" transform="translate(0,0)"/>
<path d="M0 0 C8.13587255 4.83714604 14.24068746 12.32875551 18 21 C18.3125 24.375 18.3125 24.375 17 28 C14.43893703 29.7451491 11.78546671 31.04197324 9 32.3984375 C2.81985085 35.69773587 -3.01076501 40.56380342 -6 47 C-5.89945313 48.66482422 -5.89945313 48.66482422 -5.796875 50.36328125 C-6.0899957 55.61126921 -8.61567445 57.61751506 -12.25 61.1875 C-13.23274902 62.19006836 -13.23274902 62.19006836 -14.23535156 63.21289062 C-15.68038418 64.68134897 -17.13363415 66.14175316 -18.59375 67.59521484 C-21.20239648 70.20227327 -23.7737973 72.84309466 -26.34375 75.48828125 C-28.14455278 77.32677601 -29.9466212 79.16403199 -31.75 81 C-32.61915039 81.89098389 -33.48830078 82.78196777 -34.38378906 83.69995117 C-35.6092041 84.93128784 -35.6092041 84.93128784 -36.859375 86.1875 C-37.58608398 86.92355469 -38.31279297 87.65960938 -39.06152344 88.41796875 C-41 90 -41 90 -44 90 C-44.66663859 63.59427462 -44.11764476 37.71882942 -25.50805664 17.26049805 C-22.918349 14.59035713 -20.28626497 11.97373892 -17.625 9.375 C-16.72394531 8.47910156 -15.82289062 7.58320312 -14.89453125 6.66015625 C-6.29887787 -1.83240084 -6.29887787 -1.83240084 0 0 Z " fill="#007CEE" transform="translate(44,38)"/>
<path d="M0 0 C1.36884974 3.05057941 0.91302349 4.24890384 -0.21484375 7.4765625 C-0.788492 8.85961177 -1.36274704 10.24240945 -1.9375 11.625 C-4.40707674 18.04225853 -5.58604011 23.80380082 -5.5625 30.6875 C-5.56435303 31.42887207 -5.56620605 32.17024414 -5.56811523 32.93408203 C-5.42564372 37.6827712 -4.22684425 40.86265984 -2 45 C-2.33 45.66 -2.66 46.32 -3 47 C-5.84947149 44.29959543 -8.67826109 41.5792947 -11.48999023 38.83959961 C-12.91720768 37.45715572 -14.35989125 36.09073691 -15.80273438 34.72460938 C-17.15141602 33.40493164 -17.15141602 33.40493164 -18.52734375 32.05859375 C-19.35999756 31.25736084 -20.19265137 30.45612793 -21.05053711 29.63061523 C-23.4603527 26.3787977 -23.79908263 24.00420658 -24 20 C-20.23053691 10.60192687 -8.80902454 3.91512202 0 0 Z " fill="#03D35A" transform="translate(61,65)"/>
<path d="M0 0 C5.10583347 0.551982 9.561116 2.22783483 14.31640625 4.0625 C19.39389136 5.83629392 24.06338471 6.18505601 29.4375 6.25 C30.71496094 6.27578125 31.99242188 6.3015625 33.30859375 6.328125 C37.24141162 5.97854119 39.54548866 4.80926925 43 3 C43.99 3.33 44.98 3.66 46 4 C43.29959543 6.84947149 40.5792947 9.67826109 37.83959961 12.48999023 C36.45715572 13.91720768 35.09073691 15.35989125 33.72460938 16.80273438 C32.84482422 17.70185547 31.96503906 18.60097656 31.05859375 19.52734375 C30.25736084 20.35999756 29.45612793 21.19265137 28.63061523 22.05053711 C25.38000281 24.45945964 23.00192352 24.79376084 19 25 C11.01122956 22.00789594 4.8272425 11.89938297 0.7421875 4.8203125 C0 3 0 3 0 0 Z " fill="#0FDFEB" transform="translate(66,66)"/>
<path d="M0 0 C4.95554891 4.1784577 9.73749481 8.47126358 14.375 13 C15.00277344 13.59039062 15.63054687 14.18078125 16.27734375 14.7890625 C19.08471534 17.54186315 20.79659323 19.38675505 22.05078125 23.16796875 C21.9592119 28.27472101 19.33006454 31.29925309 16 35 C10.23404534 40.04122831 4.29143662 44.51428297 -3 47 C-3.33 46.34 -3.66 45.68 -4 45 C-3.10931284 42.36922865 -2.16222153 39.82230938 -1.125 37.25 C1.83269555 29.87601932 3.15214886 23.52379322 3.25 15.5 C3.27578125 14.2315625 3.3015625 12.963125 3.328125 11.65625 C2.97703628 7.74411855 1.89773266 5.39594266 0 2 C0 1.34 0 0.68 0 0 Z " fill="#FB7355" transform="translate(69,16)"/>
<path d="M0 0 C8.11318348 4.82365636 14.28357442 12.32834031 18 21 C18 21.99 18 22.98 18 24 C13.40349902 23.39317817 9.50208659 22.1072022 5.1875 20.4375 C-0.59738056 18.36870574 -5.92000483 17.51141353 -12.0625 17.5 C-12.76415283 17.49411865 -13.46580566 17.4882373 -14.1887207 17.48217773 C-18.85098686 17.59466309 -21.93650418 18.82636182 -26 21 C-26.66 20.67 -27.32 20.34 -28 20 C-25.19151323 17.16681071 -22.379765 14.33690379 -19.56494141 11.51000977 C-18.60765619 10.54769305 -17.65127006 9.58448108 -16.69580078 8.62036133 C-15.32300212 7.23544555 -13.94670528 5.85400009 -12.5703125 4.47265625 C-11.74289551 3.64000244 -10.91547852 2.80734863 -10.06298828 1.94946289 C-6.49206532 -1.42495365 -4.70182215 -1.36780281 0 0 Z " fill="#0DB2FB" transform="translate(44,38)"/>
<path d="M0 0 C1.65 0.99 3.3 1.98 5 3 C4.34 4.32 3.68 5.64 3 7 C1.68 6.34 0.36 5.68 -1 5 C-0.67 3.35 -0.34 1.7 0 0 Z " fill="#4B5355" transform="translate(62,60)"/>
</svg>
